# xmcd
#
# Track frame offsets:
#	150
#	18220
#	37770
#	54845
#	72860
#	98925
#	133237
#	148217
#	161725
#	184262
#	203457
#	216567
#
# Disc length: 3156 seconds
#
# Revision: 1
# Processed by: cddbd v1.5.1PL0 Copyright (c) Steve Scherf et al.
# Submitted via: audiograbber 1.81.02
#
DISCID=ac0c520c
DTITLE=Various Artist - Blues Piano Greats
DYEAR=1998
DGENRE=Blues
TTITLE0=Professor Longhair - Every Day I Have the Blues
TTITLE1=Professor Longhair - Mess Around
TTITLE2=Memphis Slim - Nervous
TTITLE3=Memphis Slim - Summertime
TTITLE4=Champion Jack Dupree - I Used to Love You
TTITLE5=Champion Jack Dupree - Junker Blues
TTITLE6=Dr. John - Tipitina
TTITLE7=Cousin Joe - Sleepwalkin' Blues
TTITLE8=Otis Spann with Muddy Waters Band - She's Nineteen Years Old
TTITLE9=Otis Spann with Muddy Waters Band - Can't Get No Grindin' (What's the M
TTITLE9=atter with the Meal)
TTITLE10=Sunnyland Slim - She's Got a Thing Going On
TTITLE11=Sunnyland Slim featuring Clifton James - Wee Wee Hours
EXTD=
EXTT0=
EXTT1=
EXTT2=
EXTT3=
EXTT4=
EXTT5=
EXTT6=
EXTT7=
EXTT8=
EXTT9=
EXTT10=
EXTT11=
PLAYORDER=
